HIERARCHY
ROOT root
{
	OFFSET	0	13.1	24.9
	CHANNELS 6  Xposition Yposition Zposition Xrotation Yrotation Zrotation
	JOINT spine_1
	{
		OFFSET	0	9.99999	0
		CHANNELS 3  Xrotation Yrotation Zrotation
		JOINT spine_2
		{
			OFFSET	0	112	-10
			CHANNELS 3  Xrotation Yrotation Zrotation
			JOINT spine_3
			{
				OFFSET	0	206.5	19.3
				CHANNELS 3  Xrotation Yrotation Zrotation
				JOINT spine_4
				{
					OFFSET	0	110.4	14.6
					CHANNELS 3  Xrotation Yrotation Zrotation
					JOINT neck_1
					{
						OFFSET	0	71.8	-50.3
						CHANNELS 3  Xrotation Yrotation Zrotation
						JOINT neck_2
						{
							OFFSET	0	86.2	-25.8
							CHANNELS 3  Xrotation Yrotation Zrotation
							JOINT head_ee
							{
								OFFSET	0	179.8	-8.7
								CHANNELS 3  Xrotation Yrotation Zrotation
								End Site
								{
									OFFSET	1	0	0
								}
							}
						}
					}
					JOINT left_clavicle
					{
						OFFSET	-43.2	22.4	-70.8
						CHANNELS 3  Xrotation Yrotation Zrotation
						JOINT left_shoulder
						{
							OFFSET	-93.9	-5.79999	48.7
							CHANNELS 3  Xrotation Yrotation Zrotation
							JOINT left_elbow
							{
								OFFSET	-291.4	-30.8	15.2
								CHANNELS 3  Xrotation Yrotation Zrotation
								JOINT left_lowarm_twist
								{
									OFFSET	-110.7	-3.89999	13.6
									CHANNELS 3  Xrotation Yrotation Zrotation
									JOINT left_hand
									{
										OFFSET	-110.7	-3.89999	13.6
										CHANNELS 3  Xrotation Yrotation Zrotation
										JOINT left_ee
										{
											OFFSET	-80.8	-5.10001	12.1
											CHANNELS 3  Xrotation Yrotation Zrotation
											End Site
											{
												OFFSET	1	0	0
											}
										}
									}
								}
							}
						}
					}
					JOINT right_clavicle
					{
						OFFSET	43.2	22.4	-70.8
						CHANNELS 3  Xrotation Yrotation Zrotation
						JOINT right_shoulder
						{
							OFFSET	93.9	-5.79999	48.7
							CHANNELS 3  Xrotation Yrotation Zrotation
							JOINT right_elbow
							{
								OFFSET	291.4	-30.8	15.2
								CHANNELS 3  Xrotation Yrotation Zrotation
								JOINT right_lowarm_twist
								{
									OFFSET	110.7	-3.89999	13.6
									CHANNELS 3  Xrotation Yrotation Zrotation
									JOINT right_hand
									{
										OFFSET	110.7	-3.89999	13.6
										CHANNELS 3  Xrotation Yrotation Zrotation
										JOINT right_ee
										{
											OFFSET	80.8	-5.10001	12.1
											CHANNELS 3  Xrotation Yrotation Zrotation
											End Site
											{
												OFFSET	1	0	0
											}
										}
									}
								}
							}
						}
					}
				}
			}
		}
	}
	JOINT left_hip
	{
		OFFSET	-82.8	-127.5	0.300001
		CHANNELS 3  Xrotation Yrotation Zrotation
		JOINT left_knee
		{
			OFFSET	-28.2	-396.7	2.2
			CHANNELS 3  Xrotation Yrotation Zrotation
			JOINT left_ankle
			{
				OFFSET	-11.7	-411.3	35.4
				CHANNELS 3  Xrotation Yrotation Zrotation
				JOINT left_toes
				{
					OFFSET	0	-60	-88.6
					CHANNELS 3  Xrotation Yrotation Zrotation
					JOINT left_foot_ee
					{
						OFFSET	-22.5	-16.5	-42.2
						CHANNELS 3  Xrotation Yrotation Zrotation
						End Site
						{
							OFFSET	1	0	0
						}
					}
				}
			}
		}
	}
	JOINT right_hip
	{
		OFFSET	82.8	-127.5	0.300001
		CHANNELS 3  Xrotation Yrotation Zrotation
		JOINT right_knee
		{
			OFFSET	28.2	-396.7	2.2
			CHANNELS 3  Xrotation Yrotation Zrotation
			JOINT right_ankle
			{
				OFFSET	11.7	-411.3	35.4
				CHANNELS 3  Xrotation Yrotation Zrotation
				JOINT right_toes
				{
					OFFSET	0	-60	-88.6
					CHANNELS 3  Xrotation Yrotation Zrotation
					JOINT right_foot_ee
					{
						OFFSET	22.5	-16.5	-42.2
						CHANNELS 3  Xrotation Yrotation Zrotation
						End Site
						{
							OFFSET	1	0	0
						}
					}
				}
			}
		}
	}
}
MOTION
Frames: 13
Frame Time: 0.02
3083.72 713.291 -1518.29 -13.2195 51.4523 14.3825 3.28712 0.442663 1.25742 3.28793 0.36176 1.28304 3.29576 0.160423 1.32337 3.2935 0.367394 1.28143 -9.34521 20.4067 2.41566 -9.75241 36.7804 7.51513 -0.0 0.0 -0.0 -4.63293 16.9576 -5.24144 -21.2193 -11.8299 72.6372 0.86364 -23.1621 0.176985 21.3962 0.251292 -2.70578 1.38005 8.25414 12.4626 -0.0 0.0 -0.0 14.1745 27.5154 -28.2141 -1.31551 49.5266 -60.6397 1.37301 34.2198 -0.422672 8.83764 -0.226531 1.10508 1.79678 12.4986 -6.80452 0.0 0.0 0.0 19.4411 6.17105 -15.4637 5.00917 -0.238445 -0.731287 7.55575 -12.2197 -1.15406 13.7501 -0.0 -0.0 -0.0 0.0 -0.0 -3.31899 18.83 5.89339 -16.319 -0.321306 -2.47525 26.7857 -11.6082 3.54905 6.9364 -0.0 -0.0 0.0 0.0 0.0 
3061.66 718.318 -1515.59 -13.2463 52.2345 14.3908 3.14853 0.331153 1.18883 3.14928 0.254839 1.20749 3.15442 0.0633056 1.23246 3.15239 0.257141 1.207 -8.1072 20.9017 2.45254 -8.31666 37.45 7.2208 -0.0 0.0 -0.0 -4.62884 17.1693 -5.18415 -21.3083 -14.3474 71.5607 0.924881 -24.6149 0.201787 20.9825 0.25607 -2.65315 1.03398 7.07719 9.72506 -0.0 0.0 -0.0 13.7217 27.0428 -27.2213 -4.30385 48.8507 -60.6335 1.48634 36.3615 -0.488154 7.22804 -0.198021 0.901451 1.57835 11.7073 -5.67325 0.0 0.0 0.0 17.7185 7.37176 -13.468 5.76931 -0.280196 -0.840373 8.30707 -9.57549 -1.24555 13.7152 -0.0 -0.0 -0.0 0.0 -0.0 -3.00912 18.7601 6.06115 -18.7471 -0.308444 -2.84755 24.5751 -17.6711 3.34216 10.8977 -0.0 -0.0 0.0 0.0 0.0 
3044.3 723.431 -1512.93 -13.4056 53.61 14.1013 3.03616 0.207395 1.18539 3.03693 0.131551 1.19618 3.03945 -0.0591468 1.20194 3.03745 0.131405 1.1962 -7.78727 21.383 2.59017 -7.94904 38.1962 7.35404 -0.0 0.0 -0.0 -4.56656 17.2414 -5.06886 -21.2767 -16.0666 70.6165 0.981478 -25.9283 0.225951 20.9165 0.256797 -2.64474 0.788179 6.04826 7.70136 -0.0 0.0 -0.0 13.3538 26.614 -26.4215 -7.14269 48.1559 -60.3407 1.54662 37.4549 -0.524356 6.01841 -0.172836 0.748987 1.40542 10.9321 -4.84067 0.0 0.0 0.0 16.5254 8.08264 -11.9219 6.41806 -0.316973 -0.933036 7.10156 -7.37187 -1.05722 13.5167 -0.0 -0.0 -0.0 0.0 -0.0 -2.61681 19.4373 6.1856 -20.3831 -0.290888 -3.09795 23.9175 -20.8576 3.30331 14.8291 -0.0 -0.0 0.0 0.0 0.0 
3025.64 728.328 -1507.69 -12.5736 54.2473 13.2109 2.90823 0.134295 1.23198 2.90907 0.0556349 1.23803 2.91003 -0.143523 1.23094 2.90792 0.0526671 1.23816 -9.60096 21.6088 4.54506 -10.0379 37.6893 9.97893 -0.0 0.0 -0.0 -4.45315 16.8005 -4.99426 -20.1617 -17.2952 69.8345 1.04279 -27.3187 0.253426 20.6221 0.259922 -2.60727 0.528063 5.59579 5.8067 -0.0 0.0 -0.0 13.0502 26.3481 -25.7517 -8.96899 47.7068 -60.1241 1.49947 36.6024 -0.495963 5.20393 -0.154067 0.646638 1.31113 10.5295 -4.37712 0.0 0.0 0.0 15.589 8.7286 -11.0183 6.74094 -0.335669 -0.979001 5.16353 -4.45667 -0.763837 13.4602 -0.0 -0.0 -0.0 0.0 -0.0 -2.39057 19.9424 6.45763 -21.9059 -0.268127 -3.33049 21.0364 -25.8418 3.01902 16.9057 -0.0 -0.0 0.0 0.0 0.0 
3011.44 725.728 -1499.36 -12.9249 53.6995 13.3738 3.00812 0.168124 1.09061 3.00877 0.0983892 1.09909 3.01046 -0.07711 1.10079 3.00878 0.0976964 1.09916 -10.1784 22.2486 5.60687 -10.709 38.3376 11.3922 -0.0 0.0 -0.0 -4.53568 16.3972 -5.22049 -19.2171 -18.1771 68.9397 1.09887 -28.5606 0.279703 21.6122 0.248648 -2.73324 0.346297 4.33181 4.09733 -0.0 0.0 -0.0 12.9987 26.7312 -25.586 -11.8086 47.3074 -58.4102 1.54705 37.4626 -0.524617 3.8481 -0.119598 0.476876 1.35614 12.2397 -3.93798 0.0 0.0 0.0 14.5586 8.39915 -10.0233 6.59342 -0.327095 -0.958013 4.69414 -5.03625 -0.697033 13.9859 -0.0 -0.0 -0.0 0.0 -0.0 -3.20544 22.8379 8.12592 -24.1769 -0.222719 -3.67602 17.6358 -26.3521 2.57366 19.3962 -0.0 -0.0 0.0 0.0 0.0 
2998.12 724.739 -1493.94 -13.1352 53.938 12.867 3.09539 0.204028 1.0392 3.09598 0.137491 1.05008 3.09831 -0.0291009 1.05864 3.09677 0.138448 1.04995 -11.5358 22.1755 6.26089 -12.2775 38.0946 12.514 -0.0 0.0 -0.0 -4.41529 15.2274 -5.30021 -18.2495 -19.1775 68.8067 1.13832 -29.4173 0.298826 20.8604 0.257407 -2.63761 0.269601 4.31914 3.58596 -0.0 0.0 -0.0 12.8479 26.8609 -25.2226 -14.387 47.1692 -58.0617 1.52248 37.0208 -0.509749 3.26903 -0.103654 0.404625 0.940677 8.67316 -2.66942 0.0 0.0 0.0 14.0452 8.57365 -8.09995 6.5035 -0.321896 -0.94521 5.63627 -2.89974 -0.827801 14.7884 -0.0 -0.0 -0.0 0.0 -0.0 -1.14454 24.7591 8.09597 -28.73 -0.0906096 -4.3621 14.0022 -29.6248 2.11507 23.4398 -0.0 -0.0 0.0 0.0 0.0 
2976.68 731.042 -1488.78 -11.8288 54.8391 10.84 2.92842 0.154087 1.30519 2.92937 0.0707293 1.31234 2.93072 -0.140063 1.30677 2.92834 0.0680559 1.31249 -10.091 22.5841 6.27309 -10.587 38.5168 12.0794 -0.0 0.0 -0.0 -3.87901 14.793 -4.52394 -18.4215 -20.3795 67.1653 1.18336 -30.3779 0.321278 19.8702 0.267027 -2.51149 0.228801 2.48475 2.561 -0.0 0.0 -0.0 12.4633 25.5243 -24.4953 -17.9955 46.6843 -57.6372 1.58629 38.1575 -0.548673 2.14165 -0.0705197 0.264433 0.711555 8.90431 -1.02299 0.0 0.0 0.0 11.5132 10.6903 -5.13019 6.8227 -0.340445 -0.990624 7.62298 -4.48747 -1.11872 14.1827 -0.0 -0.0 -0.0 0.0 -0.0 0.313917 27.0898 7.53237 -32.8929 0.0775661 -4.97866 2.52895 -30.2814 0.396554 25.7189 -0.0 -0.0 0.0 0.0 0.0 
2961.2 731.633 -1482.2 -11.0611 55.8676 9.20327 2.90868 -0.00435417 1.27704 2.90958 -0.0856001 1.27418 2.90739 -0.288817 1.24397 2.90524 -0.0887482 1.27396 -11.2962 21.9585 5.9096 -11.9957 37.8483 12.0213 -0.0 0.0 -0.0 -3.87108 13.5027 -4.78866 -17.8535 -21.3088 66.8351 1.20572 -30.8477 0.332662 19.5877 0.269371 -2.47549 0.482743 2.72889 4.34727 -0.0 0.0 -0.0 12.4928 25.2817 -24.5899 -20.8461 45.9899 -56.044 1.44732 35.6369 -0.465221 1.53324 -0.0514935 0.189051 0.593551 7.65085 -0.760046 0.0 0.0 0.0 9.37974 11.6289 -2.75821 6.33651 -0.312293 -0.921412 10.2048 -5.45963 -1.48958 13.923 -0.0 -0.0 -0.0 0.0 -0.0 2.83964 29.1345 7.02532 -37.6867 0.326192 -5.67169 -6.04556 -30.5254 -0.96561 28.1529 -0.0 -0.0 0.0 0.0 0.0 
2951.21 732.072 -1480.43 -10.3029 54.9164 7.64889 2.97641 0.0357374 1.55121 2.97774 -0.0630305 1.55034 2.9756 -0.309031 1.52054 2.97238 -0.0650417 1.55026 -10.7506 22.7265 6.8559 -11.3457 38.5745 12.9268 -0.0 0.0 -0.0 -3.60504 12.4633 -4.5609 -17.619 -21.5366 65.814 1.1849 -30.4102 0.322053 19.5372 0.269772 -2.46905 0.162462 1.52038 1.71992 -0.0 0.0 -0.0 12.5116 25.8443 -24.5701 -22.91 45.5725 -56.032 1.50565 36.7151 -0.499648 0.516544 -0.0179134 0.0635381 0.498227 7.65443 -0.114961 0.0 0.0 0.0 7.9752 12.2561 -1.12483 7.58994 -0.386067 -1.09937 9.68903 -4.19102 -1.40995 14.1574 -0.0 -0.0 -0.0 0.0 -0.0 4.09745 28.7273 6.65825 -39.1321 0.412475 -5.87641 -6.17593 -29.9069 -0.982425 29.4947 -0.0 -0.0 0.0 0.0 0.0 
2946.51 734.63 -1474.66 -8.25652 52.5067 5.04958 2.58754 0.53865 1.62107 2.5889 0.434419 1.65205 2.60127 0.154972 1.70116 2.59748 0.421656 1.65536 -13.309 22.3529 8.01061 -14.2649 37.7671 14.878 -0.0 0.0 -0.0 -3.57928 11.7412 -4.66533 -16.2121 -22.1507 64.2662 1.22669 -31.2844 0.343485 19.8553 0.267155 -2.5096 0.459164 1.22337 3.57299 -0.0 0.0 -0.0 12.5869 25.9648 -24.7293 -23.1356 45.5849 -55.9842 1.40672 34.8687 -0.441786 -1.055 0.0383651 -0.129264 0.123322 4.69225 1.15676 0.0 0.0 0.0 7.15731 13.7163 -0.256177 5.66688 -0.274485 -0.825704 9.05917 -3.87078 -1.31975 15.3993 -0.0 -0.0 -0.0 0.0 -0.0 5.64076 31.4272 5.27627 -39.9167 0.461473 -5.98662 -11.9772 -27.9744 -1.8962 34.2618 -0.0 -0.0 0.0 0.0 0.0 
2934.99 738.427 -1472.81 -6.73682 49.9975 3.36136 2.40359 0.546922 1.84765 2.40539 0.428264 1.87869 2.4193 0.105273 1.924 2.41436 0.407757 1.88325 -13.7107 22.3491 8.08739 -14.7386 37.8098 15.1117 -0.0 0.0 -0.0 -3.36011 10.9249 -4.45345 -14.99 -21.8604 62.8647 1.13291 -29.3006 0.296173 20.1135 0.264865 -2.5425 0.643686 0.847596 4.65079 -0.0 0.0 -0.0 12.5304 25.5302 -24.6488 -23.2127 45.4998 -56.6659 1.36304 34.0258 -0.417077 -2.32153 0.0875603 -0.283494 -0.23179 2.52644 2.62538 0.0 0.0 0.0 6.51626 15.072 0.0326691 4.77748 -0.226009 -0.697931 8.88335 -3.57442 -1.29357 16.4862 -0.0 -0.0 -0.0 0.0 -0.0 7.14781 33.2325 4.66711 -42.5418 0.636344 -6.3504 -17.0249 -26.8958 -2.68994 37.5745 -0.0 -0.0 0.0 0.0 0.0 
2916.66 738.37 -1477.89 -4.94125 49.1844 1.47285 2.308 0.565999 2.20729 2.31061 0.424432 2.23882 2.32703 0.0370791 2.27837 2.32 0.396348 2.24395 -12.1526 22.7085 6.99395 -13.0188 38.7996 13.6258 -0.0 0.0 -0.0 -3.68727 11.6507 -4.86848 -14.6003 -21.0731 61.4635 1.16299 -29.9458 0.311044 17.174 0.282161 -2.16748 0.680999 -1.06231 4.11483 -0.0 0.0 -0.0 12.4442 22.4262 -24.7623 -24.6736 45.7872 -56.9148 1.28201 32.4169 -0.372676 -4.44638 0.177726 -0.539718 -0.4265 0.245618 2.95463 0.0 0.0 0.0 4.74131 14.6632 1.30088 0.661183 -0.0277902 -0.0976561 14.7167 -1.6456 -2.08216 17.5145 -0.0 -0.0 -0.0 0.0 -0.0 9.72606 38.2651 1.022 -48.218 1.07054 -7.10783 -21.6928 -26.6296 -3.42946 40.1189 -0.0 -0.0 0.0 0.0 0.0 
2903.73 735.102 -1486.02 -2.29275 46.0503 -0.823117 2.12622 0.59398 2.43031 2.1294 0.438178 2.46315 2.14819 0.00462062 2.50179 2.13968 0.399552 2.4697 -12.0013 22.5909 6.79707 -12.8393 38.6613 13.3414 -0.0 0.0 -0.0 -4.27642 12.348 -5.72349 -13.7374 -19.6811 59.8939 1.12042 -29.0305 0.290088 16.3076 0.283585 -2.05683 1.00586 -2.32331 5.78042 -0.0 0.0 -0.0 12.899 24.4713 -25.6143 -25.6024 46.1774 -58.0581 1.22664 31.2834 -0.343459 -6.4149 0.2697 -0.774002 -0.444538 0.148914 3.03376 0.0 0.0 0.0 3.09525 16.2838 0.818891 -2.39487 0.0911718 0.356199 18.3929 -0.123849 -2.55062 17.0206 -0.0 -0.0 -0.0 0.0 -0.0 11.3934 36.6598 0.176381 -49.9572 1.21844 -7.33106 -21.8897 -22.8435 -3.39551 40.1121 -0.0 -0.0 0.0 0.0 0.0 
